<svg width="35" height="35" viewBox="0 0 35 35" fill="none" xmlns="http://www.w3.org/2000/svg">
<path d="M23.3333 31.1111L11.6667 27.0083V3.88889L23.3333 7.99167M34.0278 0C33.9111 0 33.8139 0 33.7167 0L23.3333 4.08333L11.6667 0L0.7 3.69444C0.291666 3.83056 0 4.18056 0 4.62778V34.0278C0 34.2856 0.10243 34.5329 0.284757 34.7152C0.467084 34.8976 0.714373 35 0.972222 35C1.06944 35 1.18611 35 1.28333 34.9417L11.6667 30.9167L23.3333 35L34.3 31.3056C34.7083 31.1111 35 30.8194 35 30.3722V0.972222C35 0.714373 34.8976 0.467084 34.7152 0.284757C34.5329 0.10243 34.2856 0 34.0278 0Z" fill="black" fill-opacity="0.7"/>
</svg>
