<svg width="39" height="35" viewBox="0 0 39 35" fill="none" xmlns="http://www.w3.org/2000/svg">
<path d="M24.625 16.1333C22.575 16.1333 21.0375 14.4249 21.0375 12.5458C21.0375 10.6666 22.7458 8.9583 24.625 8.9583C26.5042 8.9583 28.2125 10.6666 28.2125 12.5458C28.2125 14.4249 26.675 16.1333 24.625 16.1333ZM24.625 2.29578C18.9875 2.29578 14.375 6.90828 14.375 12.5458C14.375 20.2333 24.625 31.5083 24.625 31.5083C24.625 31.5083 34.875 20.2333 34.875 12.5458C34.875 6.73744 30.2625 2.29578 24.625 2.29578Z" fill="black" fill-opacity="0.7"/>
<path d="M12.6667 31.1666V34.5833H23.6C22.0625 32.7041 18.8167 28.775 16.2542 24.3333H4.12501V3.83329H14.7167C15.9125 2.46663 17.45 1.27079 19.1583 0.416626H4.12501C2.24581 0.416626 0.708313 1.95413 0.708313 3.83329V24.3333C0.708313 26.2125 2.24581 27.75 4.12501 27.75H16.0833V31.1666H12.6667Z" fill="black" fill-opacity="0.7"/>
<path d="M7.54169 7.25V15.7917H12.325C11.9833 14.425 11.8125 13.2292 11.8125 12.0333C11.8125 10.325 12.1542 8.7875 12.6667 7.25H7.54169Z" fill="black" fill-opacity="0.7"/>
<path d="M7.54169 20.9167H14.375C13.8625 19.7208 13.35 18.6958 12.8375 17.5H7.54169V20.9167Z" fill="black" fill-opacity="0.7"/>
<path d="M34.875 0.416626H30.0917C31.8 1.27079 33.3375 2.46663 34.5333 3.83329H34.875V4.34579C36.4125 6.56663 37.4375 9.1291 37.4375 12.0333C37.4375 14.7666 36.4125 17.8416 34.875 20.9166V24.3333H32.9958C32.3125 25.5291 31.6292 26.725 30.775 27.75H34.875C36.7542 27.75 38.2917 26.2125 38.2917 24.3333V3.83329C38.2917 1.95413 36.7542 0.416626 34.875 0.416626Z" fill="black" fill-opacity="0.7"/>
</svg>
