<svg width="36" height="36" viewBox="0 0 36 36" fill="none" xmlns="http://www.w3.org/2000/svg">
<path d="M18 0.666626C20.2985 0.666626 22.5029 1.57972 24.1283 3.20503C25.7536 4.83035 26.6667 7.03475 26.6667 9.33329C26.6667 11.6318 25.7536 13.8362 24.1283 15.4616C22.5029 17.0869 20.2985 18 18 18C15.7014 18 13.497 17.0869 11.8717 15.4616C10.2464 13.8362 9.33332 11.6318 9.33332 9.33329C9.33332 7.03475 10.2464 4.83035 11.8717 3.20503C13.497 1.57972 15.7014 0.666626 18 0.666626ZM18 22.3333C27.5767 22.3333 35.3333 26.2116 35.3333 31V35.3333H0.666656V31C0.666656 26.2116 8.42332 22.3333 18 22.3333Z" fill="black"/>
</svg>
